<?xml version="1.0" encoding="UTF-8"?>
<svg xmlns="http://www.w3.org/2000/svg" width="667.3" height="8995.75" viewBox="0 0 667.3 8995.75">

    <path class="smoke" d="M665.01,1c-63.1,144.03-235.82,195.45-382.08,253.21S-22.56,433.63,5.81,588.3c19.28,105.12,117.93,172.75,197.83,243.73,128.07,113.78,223.95,263.42,273.8,427.32,20.25,66.59,32.97,138.28,14.97,205.52-17.76,66.32-63.29,121.13-107.89,173.33C203.22,1850.42,4.51,2093.27,31.83,2371.05c15.52,157.78,103.18,297.52,175.78,438.46,119.89,232.72,203.47,484.11,246.78,742.29,15.41,91.84,25.67,186.6,5.64,277.54-25.88,117.53-99.5,217.69-162.63,320.15-175.82,285.35-278.45,649.75-140.27,955.11,43.08,95.21,107.16,179.19,158.94,269.96,112.93,197.97,165.17,423.79,216.02,645.96,27.82,121.56,55.78,247.09,34.02,369.88-24.55,138.52-109.21,257.35-179.07,379.45-278.85,487.34-334.52,1096.77-148.58,1626.57,34.51,98.34,77.1,206.06,38.71,302.95-20.99,52.98-63.97,94.69-86.75,146.94-22.77,52.24-14.31,127.78,39.3,147.11" fill="none" stroke="#acadb3" stroke-miterlimit="10" stroke-width="2"/>

</svg>