<?xml version="1.0" encoding="UTF-8"?>
<svg xmlns="http://www.w3.org/2000/svg" width="2848.8" height="6886.5" version="1.1" viewBox="0 0 2848.8 6886.5">
  <!-- Generator: Adobe Illustrator 28.7.2, SVG Export Plug-In . SVG Version: 1.2.0 Build 154)  -->
  
      <path class="smoke" d="M8.8,73.5C532.3,27.9,1403-32.9,1902.7,36.1c499.7,68.9,867.3,269.2,643.9,432.9-298.5,218.6-1303.5,209.5-1759.4,395.8-321.2,131.2-245.2,348.8,158,452.1,186,47.6,416.7,70.8,627.9,105.1,624.4,101.2,1081.6,308.5,1182.9,536.7,101.3,228.2-156.2,470.6-666.1,627.2-407.9,125.2-958.8,197.2-1303.1,342-432.4,181.9-419.3,464.7,29.7,642.1,607,239.7,1884.3,310,2017.2,620.1,79.2,184.9-338.1,353.4-797.1,461.2-459,107.8-995.1,185.4-1362,326.9-366.9,141.5-484.6,382.5-53.4,502.4,222.6,61.8,528,75.4,811.2,96.6,747.8,56.1,1558.3,259.2,1388.6,507.3-140.6,205.7-846.4,296.4-1440.6,371.1-594.2,74.7-1439.3,219.6-1371.6,429.5" fill="none" stroke="#acadb3" stroke-miterlimit="10" stroke-width="10"/>
  
</svg>