<?xml version="1.0" encoding="UTF-8"?>
<svg xmlns="http://www.w3.org/2000/svg" width="2843.6" height="5288.3" version="1.1" viewBox="0 0 2843.6 5288.3" >
  <!-- Generator: Adobe Illustrator 28.7.2, SVG Export Plug-In . SVG Version: 1.2.0 Build 154)  -->

      <path class="smoke" d="M6.3,55.1C529.8,20.1,1400.5-26.6,1900.2,26.4c499.7,52.9,867.3,206.8,643.9,332.5-298.5,167.9-1303.5,160.9-1759.4,304-321.2,100.8-245.2,267.9,158,347.3,186,36.6,416.7,54.4,627.9,80.7,624.4,77.7,1081.6,237,1182.9,412.3,101.3,175.3-156.2,361.5-666.1,481.8-407.9,96.2-958.8,151.5-1303.1,262.7-432.4,139.7-419.3,357,29.7,493.2,607,184.1,1884.3,238.1,2017.2,476.3,79.2,142-338.1,271.5-797.1,354.3s-995.1,142.4-1362,251.1c-366.9,108.7-484.6,293.8-53.4,385.9,222.6,47.5,528,57.9,811.2,74.2,747.8,43.1,1558.3,199.1,1388.6,389.7-140.6,158-846.4,227.7-1440.6,285.1S-61.4,5126.2,6.3,5287.4" fill="none" stroke="#acadb3" stroke-miterlimit="10" stroke-width="5"/>
   
</svg>