<?xml version="1.0" encoding="UTF-8"?>
<svg id="_レイヤー_2" data-name="レイヤー 2" xmlns="http://www.w3.org/2000/svg" viewBox="0 0 397.64 386.72">
  <defs>
    <style>
      .cls-1 {
        fill: #f2f2f1;
      }

      .cls-2 {
        fill: #f39518;
      }
    </style>
  </defs>
  <path class="cls-1" d="M335.15,363.22c-3.92,1.11-9,2.9-12.91,3.74-1.05.21-7.17,1.7-8.18,1.9-3.79.63-7.8,1.39-11.58,1.9-3.96.41-9.42,1.17-13.33,1.32-42.1,2.91-83.63-5.88-125.24-9.9-6.43-.45-12.18-1.86-17.99.28-3.67,1.66-4.87,6.7-3.52,10.34,2.23,6.15,9.61,8.63,15.68,7.54,12.02-1.83,20.55-13.44,21.44-25.23.98-8.55-.03-17.33.1-26.01,0,0-.12-6.54-.12-6.54-.64-30.82-1.12-62.35,6.31-92.56,2.03-8.67,4.78-17.56,10.11-25.33,34.16-34.31,134.58-48.53,183.08-53.53,4.9-.67,17.29-2.23,13.23-9.1-2.42-3.92-6.88-7.17-11.07-9.27-2.19-1.11-4.55-1.85-7.02-2.36-4.94-1.01-10.15-1.07-15.34-.8-3.71-.48-7.63.14-11.38.63-3.78.54-7.57,1.22-11.35,1.95-53.05,10.84-105.16,25.58-157.98,37.54-45.46,10.18-91.29,20.33-138.15,20.6-13.7-.34-42.55-1.24-39.77-21.2,4.78-14.94,20.84-24.28,33.22-32.28,23.09-13.73,48.9-21.95,74.79-28.53,62.62-16.77,127.85-18.51,191.85-25.68,8.39-1.09,16.66-2.44,24.74-4.5,5.81-1.61,12.16-3.71,16.92-7.23,5.26-6.22,10.86-15.7.58-22.92-52.35-23.74-138.42-7.9-195.01-.64-22,3.06-43.94,6.43-66.17,7.79-6.48,1.1-15.62-.23-22.69-2.3-5.54-1.79-11.54-4.11-15.16-9.14-1.28-1.83-1.99-4.33-1.68-6.66.44-2.08,1.57-3.66,2.75-4.96,1.24-1.33,2.6-2.42,4.02-3.39,16.11-9.48,33.9-15.49,51.93-19.65C149.99-2.13,201.42-.66,251.98,1.53c4.58.2,9.15.51,13.66.87.72.04,1.28.66,1.22,1.38.5,3.24-25.51,1.28-28.83,1.31C179.75,3.06,108.94,1.29,55.97,28.13c0,0-5.91,3.39-5.91,3.39-1.52,1.18-4.56,3.76-4.85,6.18.07,6.32,8.71,9.49,14.36,11.25,6.77,1.86,14.39,2.97,21.28,1.89,10.96-.76,21.91-2.12,32.85-3.63,32.92-4.63,65.63-10.36,98.72-14.16,33.14-3.6,67.01-6.36,100.26-1.16,11.13,1.86,22.24,4.77,32.7,9.67,5.93,3.48,10.63,10.45,9.71,17.67-.7,6.67-4.35,12.19-8.63,16.91-5.93,4.71-12.87,6.87-19.91,8.82-8.48,2.11-17.13,3.45-25.66,4.49-45.32,5.04-90.98,5.7-136.04,12.26-18.62,2.52-37.43,6.14-55.69,10.63-18.34,4.35-36.45,9.96-53.73,17.5-31.41,13.13-87.08,55.01-15.5,54.1,22.99-.47,45.83-4.32,68.49-8.06,22.83-3.77,45.55-8.11,68.25-12.7,51.8-10.25,106.88-23.75,158.69-34.64,6.74-1.24,13.49-2.71,20.39-3.03,1.04-.02,2.07-.03,3.31.19l-.51-.03c10.93-.87,22.81.33,31.62,7.69,9.63,7.25,11.04,17.11-2.45,20.94-2.74.79-5.43,1.29-8.2,1.62-21.09,2.26-42.03,5.25-62.84,9.1-31,5.97-62.19,12.98-90.9,26.22-8.74,3.92-19.89,11-25.33,16.57-4.66,6.81-7.26,15.05-9.19,23.45-6.16,25.52-6.65,51.76-6.16,78,.18,7.28.37,19.07.5,26.34.29,8.9.92,18.31-1.44,27.11-4.09,16.48-23.68,30.17-39.93,21.14-4.07-2.34-7.25-6.35-8.21-10.98-1.36-6.12,1.28-13.28,7.26-16.03,6.55-2.89,14.66-1.42,21.15-.9,21.91,2.06,43.8,5.41,65.58,7.7,34.48,3.68,69.96,4.61,103.21-6.14,3.78-1.31,5.89,4.37,1.91,5.74h0Z"/>
  <g>
    <path class="cls-2" d="M268.07,252.42c-.6-1.08-1.56-2.04-2.88-2.64-1.32-.6-3.24-.96-5.52-1.2-2.4-.12-5.52-.24-9.24-.24s-6.96.24-9.24.6c-2.28.36-4.08,1.2-5.28,2.52-1.32,1.32-2.16,3.12-2.52,5.4-.48,2.28-.72,5.4-.72,9.24,0,4.2.12,7.44.36,9.96.24,2.52.84,4.44,1.68,5.76.84,1.32,1.92,2.28,3.48,2.64,1.44.48,3.36.72,5.88.72s4.44-.12,6-.24,2.76-.48,3.6-.96c.84-.36,1.44-.96,1.8-1.8.36-.84.6-1.92.84-3.36.36-2.76.6-4.44.96-5.16.24-.72.84-1.08,1.68-1.08.36,0,.72.12.96.48.24.36.48.96.6,2.04.12,1.08.12,2.64.24,4.56v15.24c-.12,1.92-.12,3.36-.24,4.44s-.36,1.8-.6,2.16c-.24.36-.6.48-.96.48-.84,0-1.44-.36-1.68-1.2-.36-.72-.6-2.52-.96-5.4-.24-1.32-.48-2.52-.84-3.36-.36-.84-.96-1.56-1.8-2.04-.84-.36-2.04-.72-3.6-.84s-3.48-.24-6-.24-4.44.24-5.88.6c-1.56.48-2.64,1.44-3.48,2.76-.84,1.44-1.44,3.48-1.68,6-.24,2.64-.36,6.12-.36,10.44,0,3.84.12,6.96.36,9.24.12,2.4.48,4.2.96,5.52.48,1.32,1.2,2.28,2.16,2.76.84.48,2.04.84,3.6.96,3,.24,4.92.48,5.76.72.84.36,1.2.84,1.2,1.56,0,.36-.24.72-.6.84-.36.24-1.2.36-2.4.48-1.32.12-3,.24-5.28.24-2.28.12-5.4.12-9.12.12s-6.84,0-9.12-.12c-2.28,0-4.08-.12-5.28-.24-1.32-.12-2.16-.24-2.52-.48-.36-.12-.6-.48-.6-.84,0-.72.36-1.2,1.2-1.56.72-.24,2.52-.48,5.28-.72,1.44-.12,2.64-.48,3.48-.96.84-.48,1.44-1.32,1.92-2.64.48-1.32.84-3.12,1.08-5.4.12-2.28.24-5.4.24-9.24v-42.48c0-3.84-.12-6.96-.24-9.36-.24-2.28-.6-4.08-1.08-5.4-.48-1.32-1.08-2.16-1.92-2.64-.84-.48-2.04-.84-3.48-.96-2.76-.12-4.56-.36-5.28-.72-.84-.24-1.2-.72-1.2-1.44,0-.36.36-.6,1.08-.84.72-.12,2.16-.36,4.44-.48s5.4-.12,9.48-.24h16.32c6.84,0,12.24.12,16.44.36,4.08.24,7.2.72,9.48,1.44,2.28.84,3.72,1.92,4.56,3.24.84,1.32,1.2,3.12,1.32,5.4.12,2.28.12,4.2.24,5.52,0,1.32-.12,2.4-.24,3.12-.12.84-.36,1.32-.6,1.56-.36.24-.72.36-1.2.36s-.84-.12-1.2-.36c-.36-.12-.6-.6-.84-1.2-.36-.6-.6-1.44-.84-2.52s-.48-2.64-.84-4.44c-.36-1.8-.72-3.36-1.32-4.44Z"/>
    <path class="cls-2" d="M295.62,321.3c.12,1.56.36,2.76.72,3.6.36.84.84,1.44,1.44,1.8.6.36,1.56.48,2.64.6,2.04.24,3.36.48,3.96.72.6.36.84.84.84,1.44,0,.36-.12.72-.48.84-.36.24-.96.36-1.92.48-1.08.12-2.52.24-4.32.24-1.8.12-4.2.12-7.2.12s-5.52,0-7.32-.12c-1.8,0-3.24-.12-4.2-.24-1.08-.12-1.68-.24-2.04-.48-.36-.12-.48-.48-.48-.84,0-.6.36-1.08.96-1.44.6-.24,2.16-.48,4.56-.72,1.08-.12,2.04-.24,2.76-.6.72-.36,1.32-.96,1.68-1.8.36-.84.72-2.04.84-3.6.12-1.56.24-3.48.24-6,.12-2.04.12-3.96.12-6v-17.4c0-1.8,0-3.48-.12-5.28,0-2.16-.12-3.96-.24-5.28-.24-1.32-.6-2.4-.96-3.24-.48-.72-1.08-1.2-1.8-1.44-.84-.24-1.8-.36-3-.48-2.52,0-4.08-.12-4.68-.36-.6-.24-.96-.72-.96-1.32,0-.36.12-.6.36-.84.12-.24.6-.48,1.2-.84.6-.24,1.44-.48,2.64-.84,1.08-.24,2.64-.6,4.56-1.08,1.8-.36,3.36-.72,4.56-.96,1.08-.24,2.04-.48,2.76-.6.6-.12,1.08-.12,1.44-.12.24,0,.48,0,.72.12.36.24.48.84.6,1.8v6.72l-.24,8.04v23.4c0,2.04,0,4.08.12,6.12,0,2.52.12,4.44.24,5.88ZM286.98,248.94c-1.2-1.08-1.8-2.52-1.8-4.32s.6-3.24,1.8-4.32c1.08-1.08,2.52-1.56,4.2-1.56,1.56,0,3,.48,4.32,1.56,1.2,1.08,1.8,2.52,1.8,4.32s-.6,3.24-1.8,4.32c-1.32,1.08-2.76,1.56-4.32,1.56-1.68,0-3.12-.48-4.2-1.56Z"/>
    <path class="cls-2" d="M330.18,321.3c.12,1.56.48,2.76.96,3.6.36.84.96,1.44,1.8,1.8.72.36,1.68.48,2.88.6,2.52.24,4.08.48,4.68.72.6.36.96.84.96,1.44,0,.36-.12.72-.48.84-.36.24-1.08.36-2.16.48s-2.64.24-4.68.24c-2.04.12-4.68.12-7.92.12s-6,0-8.04-.12c-2.04,0-3.48-.12-4.56-.24s-1.8-.24-2.16-.48c-.36-.12-.6-.48-.6-.84,0-.6.36-1.08,1.08-1.44.6-.24,2.28-.48,4.8-.72,1.32-.12,2.28-.24,3.12-.6.72-.36,1.32-.96,1.8-1.8.36-.84.72-2.04.84-3.6.12-1.44.24-3.36.24-5.88.12-2.04.12-3.96.12-5.88v-36.6c0-6.6,0-12-.12-16.08-.12-4.08-.48-7.2-.84-9.48-.36-2.28-.96-3.72-1.68-4.44s-1.68-1.08-2.88-1.2c-2.52,0-4.08-.12-4.68-.36-.6-.24-.96-.72-.96-1.44,0-.6.48-1.2,1.56-1.56.96-.36,3.24-.96,6.84-1.68,1.8-.36,3.36-.6,4.44-.84,1.08-.12,2.04-.24,2.64-.36s1.08-.12,1.44-.12c.36.12.6.12.84.24.12.12.36.36.48.6.12.36.12.84.24,1.44v2.88c0,1.2,0,2.76-.12,4.8l-.24,9.12v49.56c0,3.6,0,7.44.12,11.4,0,2.52.12,4.44.24,5.88Z"/>
    <path class="cls-1" d="M367.26,321.3c.12,1.56.48,2.76.96,3.6.36.84.96,1.44,1.8,1.8.72.36,1.68.48,2.88.6,2.52.24,4.08.48,4.68.72.6.36.96.84.96,1.44,0,.36-.12.72-.48.84-.36.24-1.08.36-2.16.48s-2.64.24-4.68.24c-2.04.12-4.68.12-7.92.12s-6,0-8.04-.12c-2.04,0-3.48-.12-4.56-.24-1.08-.12-1.8-.24-2.16-.48-.36-.12-.6-.48-.6-.84,0-.6.36-1.08,1.08-1.44.6-.24,2.28-.48,4.8-.72,1.32-.12,2.28-.24,3.12-.6.72-.36,1.32-.96,1.8-1.8.36-.84.72-2.04.84-3.6.12-1.44.24-3.36.24-5.88.12-2.04.12-3.96.12-5.88v-36.6c0-6.6,0-12-.12-16.08-.12-4.08-.48-7.2-.84-9.48-.36-2.28-.96-3.72-1.68-4.44-.72-.72-1.68-1.08-2.88-1.2-2.52,0-4.08-.12-4.68-.36-.6-.24-.96-.72-.96-1.44,0-.6.48-1.2,1.56-1.56.96-.36,3.24-.96,6.84-1.68,1.8-.36,3.36-.6,4.44-.84,1.08-.12,2.04-.24,2.64-.36.6-.12,1.08-.12,1.44-.12.36.12.6.12.84.24.12.12.36.36.48.6.12.36.12.84.24,1.44v2.88c0,1.2,0,2.76-.12,4.8l-.24,9.12v49.56c0,3.6,0,7.44.12,11.4,0,2.52.12,4.44.24,5.88Z"/>
  </g>
</svg>